<svg width="150" height="150" viewBox="0 0 150 150" fill="none" xmlns="http://www.w3.org/2000/svg">
<path d="M150 116.261C150 134.723 134.894 149.829 116.43 149.829H33.5696C15.1053 149.829 0 134.723 0 116.261V33.5688C0 15.1061 15.1053 -1.52588e-05 33.5696 -1.52588e-05H116.43C134.894 -1.52588e-05 150 15.1061 150 33.5688V116.261Z" fill="white"/>
<path d="M78.6554 45.3063L66.53 45.3067H66.5229L66.5142 45.3063L66.5095 45.3067H66.5103C70.7604 45.3161 74.2025 48.7634 74.2025 53.0158C74.2025 53.2202 74.1923 53.4218 74.1773 53.6226C74.1506 54.2979 74.0348 55.0062 73.8092 55.7441L70.6155 65.1212H70.636L77.488 65.1176L80.1099 57.5238L80.1158 57.5053C81.4534 53.2899 80.9143 48.902 78.6554 45.3063Z" fill="#26C1C1"/>
<path d="M66.5301 38.6899H66.5096H30.5023C26.3778 38.6899 22.6785 39.8574 19.8046 42.0663C16.6267 44.5083 14.7115 48.0453 14.4111 52.0265L14.4087 52.0615L12.9436 72.4056C12.59 76.777 13.498 80.1262 15.7203 82.6438C16.5337 83.5648 17.437 84.2696 18.3678 84.8126L18.3631 104.868C18.3623 107.809 20.3019 110.397 23.1235 111.221C23.7381 111.401 24.3626 111.487 24.9796 111.487C27.196 111.487 29.3175 110.371 30.5558 108.432L44.1078 86.74H58.5496C62.1221 86.74 65.7091 85.5079 68.6516 83.2707C71.607 81.0236 73.6478 77.9716 74.4353 74.639L75.3669 71.7343H75.3661L68.4389 71.7264H68.4327L68.0428 72.9061C66.7718 77.0065 62.9615 80.1234 58.5496 80.1234H40.4834L24.9796 104.87L24.9847 80.0514C21.2004 79.5561 19.1057 78.1634 19.5408 72.9061L21.0087 52.5246C21.3315 48.2501 25.0611 45.3064 30.5023 45.3064H54.4677H54.4881C54.4881 45.3064 58.2488 38.6899 66.5301 38.6899Z" fill="#26C1C1"/>
<path d="M67.0945 38.6883C67.015 38.6883 66.9717 38.6899 66.9717 38.6899H66.9918H67.2398C67.1831 38.6887 67.1343 38.6883 67.0945 38.6883Z" fill="#26C1C1"/>
<path d="M66.5301 45.3063L66.5254 45.3067H66.5301V45.3063Z" fill="#26C1C1"/>
<path d="M68.4411 71.7263H68.4387L75.3663 71.7342L68.4411 71.7263Z" fill="#00938C"/>
<path d="M67.2399 38.6899H66.9918H66.9718H66.53C58.2487 38.6899 54.488 45.3064 54.488 45.3064L66.4993 45.3068H66.5024H66.5008L66.5099 45.3064H66.5142L66.5229 45.3068L66.53 45.3064H78.6554C74.8262 39.1758 68.5936 38.7159 67.2399 38.6899Z" fill="#26C1C1"/>
<path d="M66.4815 49.7281C64.6624 49.7281 63.1882 51.203 63.1882 53.0218C63.1882 54.8405 64.6624 56.3147 66.4815 56.3147C68.3002 56.3147 69.7744 54.8405 69.7744 53.0218C69.7744 51.203 68.3002 49.7281 66.4815 49.7281Z" fill="#26C1C1"/>
<path d="M67.0945 38.6883C67.015 38.6883 66.9717 38.6899 66.9717 38.6899H66.9918H67.2398C67.1831 38.6887 67.1343 38.6883 67.0945 38.6883Z" fill="#26C1C1"/>
<path d="M66.5301 45.3063L66.5254 45.3067H66.5301V45.3063Z" fill="#26C1C1"/>
<path d="M136.922 56.3381L135.498 50.9816C135.48 50.9009 135.457 50.8198 135.436 50.7394L135.28 50.185C134.332 46.7791 133.436 43.5618 130.372 41.2505C127.234 38.8829 123.362 38.69 118.992 38.69H67.2397C68.5938 38.716 74.8261 39.1759 78.6556 45.3061H78.6753H118.752C127.075 45.3061 127.256 46.0645 128.901 51.9415L130.492 57.9001C131.807 63.246 128.797 65.1179 124.478 65.1179H105.652L105.658 104.87L85.2934 65.1179H77.5086H77.4886L75.3671 71.7344H75.3871H81.2709L99.7845 107.916C100.94 110.146 103.229 111.487 105.657 111.487C106.177 111.487 106.703 111.426 107.226 111.298C110.19 110.575 112.275 107.919 112.274 104.869L112.269 71.7344H124.478C130.36 71.7344 133.504 69.2983 135.107 67.2543C136.668 65.2632 138.249 61.7537 136.922 56.3381Z" fill="#D262AF"/>
<path d="M70.636 65.121H70.6159L68.4491 65.1179C63.938 65.1179 62.7748 64.1493 61.2546 60.6016L59.3048 55.8125C59.2925 55.7578 59.1744 55.3951 59.1622 55.3404C58.9303 54.6068 58.8055 53.8256 58.8055 53.0157C58.8055 48.7597 62.2543 45.3097 66.5099 45.3069H66.5024H54.4881C52.2244 48.7924 51.6267 53.0027 52.8225 57.2827C52.8639 57.4331 52.9107 57.5812 52.9627 57.7273L54.7826 62.2431L54.8058 62.3089C55.5669 64.3698 56.9809 68.2053 60.7998 70.2275C63.165 71.48 65.8063 71.6907 68.4326 71.7261H68.4389H68.4412L75.3664 71.734L77.488 65.1179L70.636 65.121Z" fill="#D262AF"/>
<path d="M68.4411 71.7263H68.4387L75.3663 71.7342L68.4411 71.7263Z" fill="#00938C"/>
</svg>
